<?xml version="1.0" encoding="UTF-8" standalone="no"?>
<!-- Generator: Adobe Illustrator 16.0.0, SVG Export Plug-In . SVG Version: 6.00 Build 0)  -->

<svg
   xmlns:dc="http://purl.org/dc/elements/1.1/"
   xmlns:cc="http://creativecommons.org/ns#"
   xmlns:rdf="http://www.w3.org/1999/02/22-rdf-syntax-ns#"
   xmlns:svg="http://www.w3.org/2000/svg"
   xmlns="http://www.w3.org/2000/svg"
   xmlns:sodipodi="http://sodipodi.sourceforge.net/DTD/sodipodi-0.dtd"
   xmlns:inkscape="http://www.inkscape.org/namespaces/inkscape"
   version="1.1"
   id="Capa_1"
   x="0px"
   y="0px"
   width="16"
   height="16"
   viewBox="0 0 16 16"
   xml:space="preserve"
   sodipodi:docname="spruce.svg"
   inkscape:version="0.92.4 5da689c313, 2019-01-14"><metadata
   id="metadata42"><rdf:RDF><cc:Work
       rdf:about=""><dc:format>image/svg+xml</dc:format><dc:type
         rdf:resource="http://purl.org/dc/dcmitype/StillImage" /><dc:title></dc:title></cc:Work></rdf:RDF></metadata><defs
   id="defs40" /><sodipodi:namedview
   pagecolor="#ffffff"
   bordercolor="#666666"
   borderopacity="1"
   objecttolerance="10"
   gridtolerance="10"
   guidetolerance="10"
   inkscape:pageopacity="0"
   inkscape:pageshadow="2"
   inkscape:window-width="640"
   inkscape:window-height="480"
   id="namedview38"
   showgrid="false"
   inkscape:zoom="3.1419121"
   inkscape:cx="123.65082"
   inkscape:cy="216.74699"
   inkscape:current-layer="Capa_1" />
<g
   id="g5"
   transform="matrix(0.03690939,0,0,0.03690939,1.7742591e-4,10e-6)">
	<g
   id="Layer_2_2_">
		<polygon
   points="157.209,127.997 179.64,116.636 111.471,250.717 153.642,234.569 79.731,379.942 200.872,337.52 200.872,433.494 232.624,433.494 232.624,337.518 353.763,379.942 279.854,234.57 322.024,250.717 253.857,116.637 276.286,127.997 216.747,0 "
   id="polygon2" />
	</g>
</g>
<g
   id="g7"
   transform="translate(0,-417.49399)">
</g>
<g
   id="g9"
   transform="translate(0,-417.49399)">
</g>
<g
   id="g11"
   transform="translate(0,-417.49399)">
</g>
<g
   id="g13"
   transform="translate(0,-417.49399)">
</g>
<g
   id="g15"
   transform="translate(0,-417.49399)">
</g>
<g
   id="g17"
   transform="translate(0,-417.49399)">
</g>
<g
   id="g19"
   transform="translate(0,-417.49399)">
</g>
<g
   id="g21"
   transform="translate(0,-417.49399)">
</g>
<g
   id="g23"
   transform="translate(0,-417.49399)">
</g>
<g
   id="g25"
   transform="translate(0,-417.49399)">
</g>
<g
   id="g27"
   transform="translate(0,-417.49399)">
</g>
<g
   id="g29"
   transform="translate(0,-417.49399)">
</g>
<g
   id="g31"
   transform="translate(0,-417.49399)">
</g>
<g
   id="g33"
   transform="translate(0,-417.49399)">
</g>
<g
   id="g35"
   transform="translate(0,-417.49399)">
</g>
</svg>